<?xml version="1.0" encoding="UTF-8" standalone="no"?>
<!-- Created with Inkscape (http://www.inkscape.org/) -->

<svg
   width="24"
   height="24"
   viewBox="0 0 6.35 6.35"
   version="1.1"
   id="svg5"
   xml:space="preserve"
   inkscape:version="1.2.2 (b0a8486, 2022-12-01)"
   sodipodi:docname="checkmarks.svg"
   inkscape:export-filename="blue_checks.svg"
   inkscape:export-xdpi="96"
   inkscape:export-ydpi="96"
   xmlns:inkscape="http://www.inkscape.org/namespaces/inkscape"
   xmlns:sodipodi="http://sodipodi.sourceforge.net/DTD/sodipodi-0.dtd"
   xmlns="http://www.w3.org/2000/svg"
   xmlns:svg="http://www.w3.org/2000/svg"><sodipodi:namedview
     id="namedview7"
     pagecolor="#ffffff"
     bordercolor="#000000"
     borderopacity="0.25"
     inkscape:showpageshadow="2"
     inkscape:pageopacity="0.0"
     inkscape:pagecheckerboard="false"
     inkscape:deskcolor="#d1d1d1"
     inkscape:document-units="px"
     showgrid="false"
     inkscape:zoom="11.313709"
     inkscape:cx="-0.66291261"
     inkscape:cy="20.196737"
     inkscape:window-width="1366"
     inkscape:window-height="704"
     inkscape:window-x="0"
     inkscape:window-y="0"
     inkscape:window-maximized="1"
     inkscape:current-layer="g221"
     showborder="false"
     shape-rendering="auto" /><defs
     id="defs2" /><g
     inkscape:label="Layer 1"
     inkscape:groupmode="layer"
     id="layer1"
     transform="translate(-104.4333,-142.10083)"><g
       id="g9010"
       transform="matrix(0.99995833,0,0,0.99998766,0.36245844,0.91244447)"
       inkscape:export-filename="./g9010.svg"
       inkscape:export-xdpi="95.379997"
       inkscape:export-ydpi="95.379997"><g
         id="g221"
         transform="matrix(1,0,0,1.0000715,0,-0.0101851)"
         inkscape:export-filename="checkmarks.svg"
         inkscape:export-xdpi="24"
         inkscape:export-ydpi="24"><path
           id="path8964"
           style="fill:#c5c5c6;stroke-width:0.0175486;stroke-dasharray:none;fill-opacity:1"
           d="m 108.60371,142.41818 c -0.0373,0 -0.0854,0.009 -0.10646,0.0207 -0.0211,0.0113 -0.5479,0.78572 -1.17098,1.72083 -0.19603,0.29421 -0.34298,0.51438 -0.50488,0.75706 0.0977,0.0969 0.18627,0.18451 0.26923,0.26613 0.14276,-0.21221 0.29679,-0.44281 0.45785,-0.6842 0.92876,-1.39198 1.21408,-1.8334 1.22008,-1.8867 0.0103,-0.099 -0.0701,-0.19379 -0.16484,-0.19379 z m -3.97702,1.97559 c -0.0684,-3.1e-4 -0.14561,0.0513 -0.17518,0.12196 -0.0242,0.0577 -0.0242,0.0755 -5.2e-4,0.13022 0.0157,0.0362 0.38103,0.41609 0.85369,0.88729 0.7532,0.7509 0.83251,0.82372 0.89091,0.82372 0.0353,0 0.0812,-0.009 0.10231,-0.0207 0.0118,-0.006 0.19931,-0.27692 0.47388,-0.68161 -0.0758,-0.075 -0.16474,-0.16309 -0.26665,-0.26459 -0.16809,0.25179 -0.31811,0.47632 -0.31988,0.47853 -0.004,0.005 -0.33862,-0.32142 -0.74311,-0.72502 -0.46718,-0.46618 -0.75433,-0.73873 -0.78703,-0.74673 -0.009,-0.002 -0.0187,-0.003 -0.0284,-0.003 z" /><path
           style="fill:#c5c5c6;stroke-width:0.01746235;stroke-dasharray:none;fill-opacity:1"
           d="m 106.6029,145.48796 c -0.47266,-0.4712 -0.83814,-0.85093 -0.85385,-0.88718 -0.0237,-0.0547 -0.0237,-0.0726 5.2e-4,-0.13032 0.0338,-0.0808 0.12976,-0.1367 0.20376,-0.11862 0.0327,0.008 0.31976,0.28023 0.78694,0.74641 0.40449,0.40361 0.73894,0.72989 0.74322,0.72507 0.004,-0.005 0.51759,-0.77386 1.14067,-1.70898 0.62309,-0.93512 1.15014,-1.70945 1.17123,-1.72074 0.0211,-0.0113 0.0688,-0.0205 0.10613,-0.0205 0.0947,0 0.17525,0.0946 0.16491,0.19364 -0.006,0.0533 -0.29097,0.49481 -1.21973,1.88679 -0.66686,0.99947 -1.22973,1.82644 -1.25082,1.83773 -0.0211,0.0113 -0.0672,0.0205 -0.10246,0.0205 -0.0584,0 -0.13729,-0.0729 -0.89049,-0.82381 z"
           id="path8947" /></g></g></g></svg>
