<?xml version="1.0" encoding="UTF-8" standalone="no"?>
<!-- Created with Inkscape (http://www.inkscape.org/) -->

<svg
   width="342.43735"
   height="281.50156"
   viewBox="0 0 90.603211 74.480618"
   version="1.1"
   id="svg5"
   inkscape:version="1.2.1 (9c6d41e, 2022-07-14)"
   sodipodi:docname="logo.svg"
   xml:space="preserve"
   xmlns:inkscape="http://www.inkscape.org/namespaces/inkscape"
   xmlns:sodipodi="http://sodipodi.sourceforge.net/DTD/sodipodi-0.dtd"
   xmlns="http://www.w3.org/2000/svg"
   xmlns:svg="http://www.w3.org/2000/svg"><sodipodi:namedview
     id="namedview7"
     pagecolor="#ffffff"
     bordercolor="#000000"
     borderopacity="1"
     inkscape:showpageshadow="false"
     inkscape:pageopacity="0.0"
     inkscape:pagecheckerboard="0"
     inkscape:deskcolor="#ffffff"
     inkscape:document-units="px"
     showgrid="false"
     showborder="false"
     borderlayer="false"
     inkscape:zoom="0.64"
     inkscape:cx="205.46875"
     inkscape:cy="86.71875"
     inkscape:window-width="1366"
     inkscape:window-height="704"
     inkscape:window-x="0"
     inkscape:window-y="0"
     inkscape:window-maximized="1"
     inkscape:current-layer="g32310"
     inkscape:lockguides="false"
     showguides="true" /><defs
     id="defs2" /><g
     inkscape:groupmode="layer"
     id="layer3"
     inkscape:label="Layer 3"
     style="display:inline"
     transform="translate(-171.70188,-371.87082)"><g
       id="g32310"
       style="fill:#c5c5c6;fill-opacity:1;fill-rule:nonzero;stroke:#000000"
       transform="translate(170.3871,330.26881)"
       inkscape:label="humming bird filled white"
       inkscape:export-filename="g32310.png"
       inkscape:export-xdpi="96"
       inkscape:export-ydpi="96"><path
         style="opacity:1;fill:#c5c5c6;fill-opacity:1;fill-rule:nonzero;stroke:none;stroke-width:0.517001;stroke-linecap:square;paint-order:markers stroke fill"
         d="m 20.876602,65.214333 c -0.339593,-2.283513 -0.818515,-4.850341 -1.064313,-5.704046 -0.823436,-2.860278 -2.112963,-4.918551 -4.452805,-7.10737 -1.488969,-1.392846 -1.440709,-1.405519 1.990116,-0.522499 6.389211,1.644465 10.175346,4.311386 13.151776,9.263989 0.48305,0.803777 0.647356,1.229942 0.493924,1.281086 -0.126471,0.04215 -1.341887,0.820658 -2.700919,1.730031 -2.169213,1.451477 -3.090254,2.151353 -6.132381,4.659815 l -0.667967,0.550809 z"
         id="path32294" /><path
         style="opacity:1;fill:#c5c5c6;fill-opacity:1;fill-rule:nonzero;stroke:none;stroke-width:0.517001;stroke-linecap:square;paint-order:markers stroke fill"
         d="M 30.916428,60.674771 C 29.024075,57.475615 26.35263,54.981626 23.067669,53.347401 20.740712,52.189769 19.619884,51.816654 16.252743,51.078757 9.9085908,49.688425 7.9883773,49.350049 3.2792173,48.792519 L 1.314792,48.55995 2.2502528,48.271316 c 0.7336366,-0.226403 1.9443699,-0.290433 5.6126591,-0.296862 l 4.6771981,-0.0082 1.028991,-0.782188 c 2.355295,-1.790435 5.583582,-2.866046 8.602054,-2.866046 2.841202,0 4.866799,0.755941 6.516555,2.431944 1.175306,1.193986 1.988317,2.754313 3.217042,6.174132 1.222322,3.401986 2.031709,5.116724 2.882768,6.107271 l 0.666036,0.775203 -0.423254,0.277336 c -0.232807,0.152559 -1.095481,0.615315 -1.917039,1.028409 l -1.493758,0.751046 z"
         id="path32296"
         sodipodi:nodetypes="sssscsscssssscsscs" /><path
         style="display:inline;opacity:1;fill:#c5c5c6;fill-opacity:1;fill-rule:nonzero;stroke:none;stroke-width:0.517001;stroke-linecap:square;paint-order:markers stroke fill"
         d="m 39.855058,57.836851 c 0.315595,-0.326814 5.602949,-3.365289 9.35445,-5.375699 16.39689,-8.78705 29.643572,-12.328472 38.548362,-10.305706 1.718469,0.39034 4.223279,1.257274 4.158906,1.439413 -0.02807,0.07948 -2.11373,1.747017 -4.634733,3.705675 l -4.583668,3.561186 -2.432156,-0.138086 c -4.569459,-0.259477 -13.245544,-0.146103 -15.808986,0.20656 -6.084384,0.837062 -15.812082,3.497394 -22.170019,6.063059 -2.709915,1.093549 -2.6552,1.074579 -2.432156,0.843598 z"
         id="path32298"
         transform="translate(2.88265e-6)" /><path
         style="display:inline;opacity:1;fill:#c5c5c6;fill-opacity:1;fill-rule:nonzero;stroke:none;stroke-width:0.517001;stroke-linecap:square;paint-order:markers stroke fill"
         d="m 47.553666,112.35565 c -3.081364,-9.07029 -5.728415,-15.497071 -7.263051,-17.634031 -0.412882,-0.57494 -0.969063,-1.04312 -1.651582,-1.39028 -1.505373,-0.765704 -3.448288,-2.187098 -5.100981,-3.731815 -1.814063,-1.695503 -4.333716,-4.67786 -4.126892,-4.884685 0.293159,-0.293158 2.950951,-0.589941 4.174014,-0.466116 6.222259,0.630026 11.347609,5.1485 13.656204,12.039176 0.972503,2.902717 1.142418,4.430291 1.211474,10.891941 0.03466,3.24131 0.155681,6.56006 0.268949,7.375 0.113268,0.81491 0.185129,1.50233 0.159729,1.52754 -0.0254,0.0251 -0.622961,-1.65179 -1.327864,-3.72673 z"
         id="path32300"
         transform="translate(2.88265e-6)" /><path
         style="display:inline;opacity:1;fill:#c5c5c6;fill-opacity:1;fill-rule:nonzero;stroke:none;stroke-width:0.517001;stroke-linecap:square;paint-order:markers stroke fill"
         d="m 48.497514,99.135027 c -0.08289,-0.565943 -0.444368,-1.909868 -0.803275,-2.986484 -1.934951,-5.804429 -5.798053,-9.986936 -10.832597,-11.728317 -1.351227,-0.467387 -1.751304,-0.518451 -4.115938,-0.525304 -1.632215,-0.0048 -2.855621,0.07938 -3.246517,0.223229 -0.57105,0.210132 -0.658124,0.193357 -0.971285,-0.187087 -0.877385,-1.0659 -0.873866,-1.094475 0.354912,-2.888562 1.616366,-2.359925 1.708573,-2.428584 3.577325,-2.66274 3.63482,-0.45548 7.283,-0.224949 11.922548,0.753401 l 1.941328,0.409363 0.725302,1.517571 c 1.670182,3.494643 2.1717,8.452961 1.714606,16.952409 -0.109035,2.027924 -0.124354,2.092404 -0.266409,1.122521 z"
         id="path32302"
         transform="translate(2.88265e-6)" /><path
         style="display:inline;opacity:1;fill:#c5c5c6;fill-opacity:1;fill-rule:nonzero;stroke:none;stroke-width:0.517001;stroke-linecap:square;paint-order:markers stroke fill"
         d="m 43.690379,78.533829 c -3.763301,-0.802376 -6.364658,-1.005152 -9.558629,-0.745094 -1.459521,0.118851 -2.687717,0.18206 -2.729283,0.140494 -0.04157,-0.04157 0.522711,-0.591793 1.253967,-1.222719 3.937476,-3.397303 8.14361,-5.203798 14.236329,-6.114388 2.313146,-0.345731 11.021907,-0.597747 10.735733,-0.3107 -0.252412,0.253179 -11.343745,8.841025 -11.382136,8.813006 -0.01667,-0.01217 -1.166839,-0.264425 -2.555981,-0.560599 z"
         id="path32304"
         transform="translate(2.88265e-6)" /><path
         style="display:inline;opacity:1;fill:#c5c5c6;fill-opacity:1;fill-rule:nonzero;stroke:none;stroke-width:0.517001;stroke-linecap:square;paint-order:markers stroke fill"
         d="m 26.266402,80.659147 c -0.579543,-0.899874 -1.369827,-2.211361 -1.756225,-2.914412 l -0.702495,-1.278281 1.101408,-1.122257 c 7.066491,-7.200132 17.47139,-11.66995 30.633061,-13.159581 3.012466,-0.340942 11.300618,-0.673999 12.335827,-0.495697 l 0.707999,0.12192 -5.10458,3.969226 -5.104553,3.9692 -3.943139,0.0064 c -2.168736,0.0034 -4.862803,0.09618 -5.986832,0.205899 -5.816706,0.567743 -10.782459,2.298303 -14.469137,5.042508 -1.818666,1.353741 -4.548452,4.235133 -5.62864,5.941246 -0.46302,0.731361 -0.883973,1.334293 -0.935434,1.339849 -0.05143,0.0056 -0.567716,-0.726201 -1.14726,-1.626049 z"
         id="path32306"
         transform="translate(2.88265e-6)" /><path
         style="display:inline;opacity:1;fill:#c5c5c6;fill-opacity:1;fill-rule:nonzero;stroke:none;stroke-width:0.517001;stroke-linecap:square;paint-order:markers stroke fill"
         d="M 23.104579,75.053949 C 22.454021,73.6107 22.170388,72.74501 21.891914,71.352376 l -0.261885,-1.309635 0.787056,-0.72771 c 3.321024,-3.070595 8.037195,-6.212443 13.235649,-8.817398 8.552524,-4.285668 20.939601,-8.129614 29.6282,-9.194139 2.601754,-0.318796 11.810815,-0.383963 15.14774,-0.107209 l 1.659175,0.137584 -6.304465,4.881562 -6.304439,4.881562 -4.896246,0.118613 c -9.402657,0.227727 -15.911195,1.173877 -22.295485,3.241067 -6.704515,2.170879 -12.348448,5.437478 -17.060174,9.874038 l -1.718892,1.618509 z"
         id="path32308"
         transform="translate(2.88265e-6)" /></g></g></svg>
