<?xml version="1.0" encoding="UTF-8" standalone="no"?>
<svg
   width="1440"
   height="1024"
   viewBox="0 0 1440 1024"
   fill="none"
   version="1.1"
   id="svg1581"
   sodipodi:docname="cover.svg"
   inkscape:version="1.2.1 (9c6d41e, 2022-07-14)"
   xmlns:inkscape="http://www.inkscape.org/namespaces/inkscape"
   xmlns:sodipodi="http://sodipodi.sourceforge.net/DTD/sodipodi-0.dtd"
   xmlns="http://www.w3.org/2000/svg"
   xmlns:svg="http://www.w3.org/2000/svg">
  <sodipodi:namedview
     id="namedview1583"
     pagecolor="#ffffff"
     bordercolor="#666666"
     borderopacity="1.0"
     inkscape:showpageshadow="2"
     inkscape:pageopacity="0.0"
     inkscape:pagecheckerboard="0"
     inkscape:deskcolor="#d1d1d1"
     showgrid="false"
     inkscape:zoom="0.48925781"
     inkscape:cx="717.41317"
     inkscape:cy="512"
     inkscape:window-width="1366"
     inkscape:window-height="704"
     inkscape:window-x="0"
     inkscape:window-y="0"
     inkscape:window-maximized="1"
     inkscape:current-layer="svg1581" />
  <g
     id="g2633">
    <path
       d="M549.882 737.084C550.17 737.624 550.314 738.092 550.314 738.488C550.35 738.848 550.242 739.19 549.99 739.514C549.738 739.802 549.342 740.072 548.802 740.324C547.938 740.72 547.254 740.81 546.75 740.594C546.282 740.378 545.85 739.856 545.454 739.028L531.954 710.3L518.562 738.974C518.166 739.802 517.716 740.324 517.212 740.54C516.744 740.756 516.06 740.666 515.16 740.27C514.62 740.054 514.224 739.784 513.972 739.46C513.756 739.136 513.666 738.74 513.702 738.272C513.774 737.804 513.954 737.264 514.242 736.652L529.74 704.306C529.956 703.874 530.262 703.532 530.658 703.28C531.09 702.992 531.54 702.848 532.008 702.848C532.332 702.848 532.638 702.902 532.926 703.01C533.214 703.118 533.466 703.28 533.682 703.496C533.898 703.712 534.078 704 534.222 704.36L549.882 737.084ZM521.802 729.794L523.638 725.636H540.378L542.16 729.794H521.802ZM559.429 740.648C558.817 740.648 558.313 740.558 557.917 740.378C557.557 740.198 557.251 739.874 556.999 739.406L547.009 717.644C546.613 716.78 546.523 716.132 546.739 715.7C546.955 715.232 547.459 714.8 548.251 714.404C548.971 714.044 549.583 713.936 550.087 714.08C550.591 714.188 551.023 714.656 551.383 715.484L559.429 734.654L567.313 716.024C567.709 715.196 568.141 714.602 568.609 714.242C569.077 713.882 569.815 713.954 570.823 714.458C571.795 714.926 572.281 715.466 572.281 716.078C572.281 716.654 572.119 717.284 571.795 717.968L561.859 739.352C561.679 739.784 561.391 740.108 560.995 740.324C560.599 740.54 560.077 740.648 559.429 740.648ZM580.009 740.54C579.325 740.54 578.803 740.432 578.443 740.216C578.119 740.036 577.903 739.766 577.795 739.406C577.687 739.046 577.633 738.614 577.633 738.11V716.78C577.633 716.276 577.687 715.844 577.795 715.484C577.903 715.124 578.119 714.854 578.443 714.674C578.803 714.494 579.343 714.404 580.063 714.404C580.747 714.404 581.251 714.512 581.575 714.728C581.899 714.908 582.115 715.178 582.223 715.538C582.331 715.898 582.385 716.348 582.385 716.888V738.164C582.385 738.668 582.331 739.1 582.223 739.46C582.115 739.82 581.881 740.09 581.521 740.27C581.197 740.45 580.693 740.54 580.009 740.54ZM580.009 707.924C579.217 707.924 578.623 707.816 578.227 707.6C577.831 707.348 577.561 707.006 577.417 706.574C577.309 706.142 577.255 705.638 577.255 705.062C577.255 704.486 577.327 704 577.471 703.604C577.615 703.172 577.885 702.866 578.281 702.686C578.677 702.47 579.271 702.362 580.063 702.362C580.819 702.362 581.395 702.47 581.791 702.686C582.187 702.902 582.439 703.226 582.547 703.658C582.691 704.09 582.763 704.594 582.763 705.17C582.763 705.746 582.691 706.25 582.547 706.682C582.439 707.078 582.187 707.384 581.791 707.6C581.395 707.816 580.801 707.924 580.009 707.924ZM610.896 740.486C610.104 740.486 609.528 740.324 609.168 740C608.844 739.676 608.646 739.172 608.574 738.488L608.79 735.788C608.43 736.364 607.872 737.03 607.116 737.786C606.36 738.506 605.37 739.154 604.146 739.73C602.922 740.27 601.428 740.54 599.664 740.54C597.936 740.54 596.316 740.198 594.804 739.514C593.328 738.83 592.014 737.876 590.862 736.652C589.746 735.428 588.864 734.024 588.216 732.44C587.604 730.856 587.298 729.164 587.298 727.364C587.298 725.6 587.604 723.944 588.216 722.396C588.864 720.812 589.764 719.426 590.916 718.238C592.068 717.05 593.382 716.114 594.858 715.43C596.37 714.746 597.972 714.404 599.664 714.404C601.248 714.404 602.598 714.62 603.714 715.052C604.83 715.448 605.784 715.988 606.576 716.672C607.404 717.32 608.124 718.058 608.736 718.886L608.628 716.618C608.592 715.826 608.754 715.268 609.114 714.944C609.51 714.584 610.122 714.404 610.95 714.404C611.634 714.404 612.12 714.512 612.408 714.728C612.732 714.944 612.948 715.25 613.056 715.646C613.164 716.042 613.218 716.528 613.218 717.104V737.948C613.218 738.452 613.164 738.902 613.056 739.298C612.948 739.694 612.732 739.982 612.408 740.162C612.084 740.378 611.58 740.486 610.896 740.486ZM600.474 736.004C601.914 736.004 603.228 735.626 604.416 734.87C605.64 734.114 606.594 733.106 607.278 731.846C607.998 730.55 608.358 729.074 608.358 727.418C608.358 725.726 607.98 724.25 607.224 722.99C606.504 721.694 605.532 720.686 604.308 719.966C603.12 719.21 601.806 718.832 600.366 718.832C598.674 718.832 597.198 719.228 595.938 720.02C594.714 720.776 593.742 721.802 593.022 723.098C592.302 724.394 591.942 725.87 591.942 727.526C591.942 729.146 592.302 730.604 593.022 731.9C593.742 733.16 594.732 734.168 595.992 734.924C597.288 735.644 598.782 736.004 600.474 736.004ZM622.032 740.486C621.348 740.486 620.826 740.378 620.466 740.162C620.142 739.982 619.926 739.712 619.818 739.352C619.746 738.992 619.71 738.56 619.71 738.056V716.618C619.71 716.15 619.764 715.754 619.872 715.43C619.98 715.106 620.196 714.854 620.52 714.674C620.88 714.494 621.402 714.404 622.086 714.404C622.626 714.404 623.04 714.476 623.328 714.62C623.652 714.728 623.868 714.89 623.976 715.106C624.12 715.322 624.21 715.556 624.246 715.808C624.282 716.06 624.3 716.294 624.3 716.51L624.192 718.994C624.552 718.382 625.002 717.806 625.542 717.266C626.082 716.69 626.712 716.186 627.432 715.754C628.152 715.286 628.926 714.926 629.754 714.674C630.618 714.422 631.536 714.296 632.508 714.296C634.092 714.296 635.55 714.584 636.882 715.16C638.214 715.7 639.348 716.51 640.284 717.59C641.256 718.634 641.994 719.894 642.498 721.37C643.038 722.846 643.308 724.52 643.308 726.392V738.11C643.308 738.614 643.254 739.046 643.146 739.406C643.074 739.766 642.858 740.036 642.498 740.216C642.174 740.396 641.67 740.486 640.986 740.486C640.266 740.486 639.726 740.378 639.366 740.162C639.042 739.982 638.826 739.712 638.718 739.352C638.61 738.992 638.556 738.56 638.556 738.056V726.338C638.556 724.826 638.304 723.512 637.8 722.396C637.296 721.28 636.54 720.416 635.532 719.804C634.524 719.156 633.246 718.832 631.698 718.832C630.222 718.832 628.926 719.156 627.81 719.804C626.73 720.416 625.884 721.28 625.272 722.396C624.696 723.512 624.408 724.826 624.408 726.338V738.11C624.408 738.614 624.354 739.046 624.246 739.406C624.138 739.766 623.904 740.036 623.544 740.216C623.22 740.396 622.716 740.486 622.032 740.486ZM666.179 740.54C665.531 740.54 665.027 740.432 664.667 740.216C664.343 740 664.109 739.712 663.965 739.352C663.821 738.956 663.749 738.524 663.749 738.056V705.224C663.749 704.756 663.821 704.36 663.965 704.036C664.109 703.676 664.361 703.388 664.721 703.172C665.081 702.956 665.603 702.848 666.287 702.848C666.827 702.848 667.259 702.884 667.583 702.956C667.907 703.028 668.159 703.136 668.339 703.28C668.555 703.388 668.771 703.568 668.987 703.82L683.081 724.232H681.407L695.663 703.658C695.879 703.406 696.095 703.226 696.311 703.118C696.527 703.01 696.797 702.938 697.121 702.902C697.481 702.866 697.895 702.848 698.363 702.848C699.047 702.848 699.551 702.956 699.875 703.172C700.235 703.388 700.487 703.694 700.631 704.09C700.775 704.45 700.847 704.864 700.847 705.332V738.164C700.847 738.596 700.775 738.992 700.631 739.352C700.487 739.712 700.235 740 699.875 740.216C699.515 740.432 698.993 740.54 698.309 740.54C697.661 740.54 697.157 740.432 696.797 740.216C696.473 740 696.239 739.712 696.095 739.352C695.987 738.956 695.933 738.524 695.933 738.056V710.948L684.377 727.958C684.269 728.138 684.125 728.318 683.945 728.498C683.765 728.642 683.531 728.768 683.243 728.876C682.991 728.984 682.667 729.038 682.271 729.038C681.839 729.038 681.497 728.984 681.245 728.876C681.029 728.768 680.831 728.642 680.651 728.498C680.471 728.318 680.291 728.12 680.111 727.904L668.609 711.002V738.164C668.609 738.596 668.537 738.992 668.393 739.352C668.285 739.712 668.051 740 667.691 740.216C667.367 740.432 666.863 740.54 666.179 740.54ZM720.298 740.81C718.138 740.81 716.212 740.45 714.52 739.73C712.828 739.01 711.388 738.038 710.2 736.814C709.048 735.554 708.166 734.114 707.554 732.494C706.942 730.874 706.636 729.128 706.636 727.256C706.636 724.772 707.212 722.558 708.364 720.614C709.516 718.67 711.1 717.14 713.116 716.024C715.168 714.872 717.508 714.296 720.136 714.296C721.936 714.296 723.538 714.584 724.942 715.16C726.382 715.7 727.606 716.438 728.614 717.374C729.622 718.31 730.396 719.354 730.936 720.506C731.476 721.658 731.746 722.81 731.746 723.962C731.746 725.798 731.314 727.094 730.45 727.85C729.586 728.57 728.524 728.93 727.264 728.93H711.658C711.622 730.514 712.036 731.882 712.9 733.034C713.8 734.15 714.916 735.014 716.248 735.626C717.616 736.238 718.984 736.544 720.352 736.544C721.36 736.544 722.224 736.49 722.944 736.382C723.664 736.274 724.294 736.13 724.834 735.95C725.374 735.77 725.842 735.59 726.238 735.41C726.634 735.23 726.976 735.05 727.264 734.87C727.588 734.69 727.894 734.564 728.182 734.492C728.506 734.42 728.812 734.456 729.1 734.6C729.424 734.708 729.676 734.942 729.856 735.302C730.072 735.59 730.216 735.86 730.288 736.112C730.36 736.364 730.396 736.634 730.396 736.922C730.396 737.426 729.964 737.984 729.1 738.596C728.236 739.208 727.03 739.73 725.482 740.162C723.97 740.594 722.242 740.81 720.298 740.81ZM711.658 725.744H725.212C725.896 725.744 726.4 725.654 726.724 725.474C727.084 725.294 727.264 724.808 727.264 724.016C727.264 723.008 726.958 722.108 726.346 721.316C725.734 720.488 724.888 719.822 723.808 719.318C722.764 718.814 721.558 718.562 720.19 718.562C718.606 718.562 717.148 718.886 715.816 719.534C714.52 720.146 713.494 720.992 712.738 722.072C711.982 723.152 711.622 724.376 711.658 725.744ZM745.842 740.81C744.978 740.81 744.078 740.72 743.142 740.54C742.206 740.36 741.288 740.108 740.388 739.784C739.524 739.424 738.75 739.01 738.066 738.542C737.418 738.074 736.932 737.552 736.608 736.976C736.428 736.616 736.32 736.292 736.284 736.004C736.248 735.68 736.302 735.374 736.446 735.086C736.59 734.798 736.806 734.51 737.094 734.222C737.454 733.79 737.814 733.592 738.174 733.628C738.534 733.628 738.984 733.862 739.524 734.33C739.92 734.582 740.388 734.87 740.928 735.194C741.468 735.482 742.026 735.752 742.602 736.004C743.178 736.22 743.754 736.418 744.33 736.598C744.942 736.742 745.536 736.814 746.112 736.814C747.768 736.814 749.1 736.508 750.108 735.896C751.116 735.248 751.62 734.402 751.62 733.358C751.62 732.746 751.494 732.224 751.242 731.792C750.99 731.36 750.648 731 750.216 730.712C749.784 730.388 749.298 730.118 748.758 729.902C748.218 729.686 747.606 729.488 746.922 729.308C746.274 729.092 745.626 728.894 744.978 728.714C744.006 728.462 743.052 728.174 742.116 727.85C741.18 727.526 740.334 727.112 739.578 726.608C738.822 726.068 738.21 725.402 737.742 724.61C737.274 723.782 737.04 722.738 737.04 721.478C737.04 720.002 737.418 718.724 738.174 717.644C738.93 716.564 739.992 715.736 741.36 715.16C742.728 714.548 744.33 714.242 746.166 714.242C746.958 714.242 747.696 714.296 748.38 714.404C749.064 714.512 749.712 714.692 750.324 714.944C750.972 715.16 751.584 715.43 752.16 715.754C752.736 716.042 753.294 716.402 753.834 716.834C754.482 717.266 754.824 717.734 754.86 718.238C754.896 718.742 754.698 719.264 754.266 719.804C753.942 720.272 753.582 720.578 753.186 720.722C752.79 720.83 752.394 720.722 751.998 720.398C751.422 719.966 750.81 719.588 750.162 719.264C749.514 718.94 748.848 718.67 748.164 718.454C747.48 718.238 746.778 718.13 746.058 718.13C745.158 718.13 744.348 718.274 743.628 718.562C742.944 718.814 742.404 719.21 742.008 719.75C741.648 720.254 741.468 720.83 741.468 721.478C741.468 722.054 741.612 722.522 741.9 722.882C742.224 723.242 742.62 723.548 743.088 723.8C743.592 724.052 744.168 724.286 744.816 724.502C745.5 724.682 746.202 724.862 746.922 725.042C747.966 725.294 749.028 725.6 750.108 725.96C751.224 726.284 752.214 726.734 753.078 727.31C753.978 727.85 754.698 728.588 755.238 729.524C755.814 730.424 756.102 731.63 756.102 733.142C756.102 735.518 755.166 737.39 753.294 738.758C751.422 740.126 748.938 740.81 745.842 740.81ZM769.836 740.81C768.972 740.81 768.072 740.72 767.136 740.54C766.2 740.36 765.282 740.108 764.382 739.784C763.518 739.424 762.744 739.01 762.06 738.542C761.412 738.074 760.926 737.552 760.602 736.976C760.422 736.616 760.314 736.292 760.278 736.004C760.242 735.68 760.296 735.374 760.44 735.086C760.584 734.798 760.8 734.51 761.088 734.222C761.448 733.79 761.808 733.592 762.168 733.628C762.528 733.628 762.978 733.862 763.518 734.33C763.914 734.582 764.382 734.87 764.922 735.194C765.462 735.482 766.02 735.752 766.596 736.004C767.172 736.22 767.748 736.418 768.324 736.598C768.936 736.742 769.53 736.814 770.106 736.814C771.762 736.814 773.094 736.508 774.102 735.896C775.11 735.248 775.614 734.402 775.614 733.358C775.614 732.746 775.488 732.224 775.236 731.792C774.984 731.36 774.642 731 774.21 730.712C773.778 730.388 773.292 730.118 772.752 729.902C772.212 729.686 771.6 729.488 770.916 729.308C770.268 729.092 769.62 728.894 768.972 728.714C768 728.462 767.046 728.174 766.11 727.85C765.174 727.526 764.328 727.112 763.572 726.608C762.816 726.068 762.204 725.402 761.736 724.61C761.268 723.782 761.034 722.738 761.034 721.478C761.034 720.002 761.412 718.724 762.168 717.644C762.924 716.564 763.986 715.736 765.354 715.16C766.722 714.548 768.324 714.242 770.16 714.242C770.952 714.242 771.69 714.296 772.374 714.404C773.058 714.512 773.706 714.692 774.318 714.944C774.966 715.16 775.578 715.43 776.154 715.754C776.73 716.042 777.288 716.402 777.828 716.834C778.476 717.266 778.818 717.734 778.854 718.238C778.89 718.742 778.692 719.264 778.26 719.804C777.936 720.272 777.576 720.578 777.18 720.722C776.784 720.83 776.388 720.722 775.992 720.398C775.416 719.966 774.804 719.588 774.156 719.264C773.508 718.94 772.842 718.67 772.158 718.454C771.474 718.238 770.772 718.13 770.052 718.13C769.152 718.13 768.342 718.274 767.622 718.562C766.938 718.814 766.398 719.21 766.002 719.75C765.642 720.254 765.462 720.83 765.462 721.478C765.462 722.054 765.606 722.522 765.894 722.882C766.218 723.242 766.614 723.548 767.082 723.8C767.586 724.052 768.162 724.286 768.81 724.502C769.494 724.682 770.196 724.862 770.916 725.042C771.96 725.294 773.022 725.6 774.102 725.96C775.218 726.284 776.208 726.734 777.072 727.31C777.972 727.85 778.692 728.588 779.232 729.524C779.808 730.424 780.096 731.63 780.096 733.142C780.096 735.518 779.16 737.39 777.288 738.758C775.416 740.126 772.932 740.81 769.836 740.81ZM808.175 740.486C807.383 740.486 806.807 740.324 806.447 740C806.123 739.676 805.925 739.172 805.853 738.488L806.069 735.788C805.709 736.364 805.151 737.03 804.395 737.786C803.639 738.506 802.649 739.154 801.425 739.73C800.201 740.27 798.707 740.54 796.943 740.54C795.215 740.54 793.595 740.198 792.083 739.514C790.607 738.83 789.293 737.876 788.141 736.652C787.025 735.428 786.143 734.024 785.495 732.44C784.883 730.856 784.577 729.164 784.577 727.364C784.577 725.6 784.883 723.944 785.495 722.396C786.143 720.812 787.043 719.426 788.195 718.238C789.347 717.05 790.661 716.114 792.137 715.43C793.649 714.746 795.251 714.404 796.943 714.404C798.527 714.404 799.877 714.62 800.993 715.052C802.109 715.448 803.063 715.988 803.855 716.672C804.683 717.32 805.403 718.058 806.015 718.886L805.907 716.618C805.871 715.826 806.033 715.268 806.393 714.944C806.789 714.584 807.401 714.404 808.229 714.404C808.913 714.404 809.399 714.512 809.687 714.728C810.011 714.944 810.227 715.25 810.335 715.646C810.443 716.042 810.497 716.528 810.497 717.104V737.948C810.497 738.452 810.443 738.902 810.335 739.298C810.227 739.694 810.011 739.982 809.687 740.162C809.363 740.378 808.859 740.486 808.175 740.486ZM797.753 736.004C799.193 736.004 800.507 735.626 801.695 734.87C802.919 734.114 803.873 733.106 804.557 731.846C805.277 730.55 805.637 729.074 805.637 727.418C805.637 725.726 805.259 724.25 804.503 722.99C803.783 721.694 802.811 720.686 801.587 719.966C800.399 719.21 799.085 718.832 797.645 718.832C795.953 718.832 794.477 719.228 793.217 720.02C791.993 720.776 791.021 721.802 790.301 723.098C789.581 724.394 789.221 725.87 789.221 727.526C789.221 729.146 789.581 730.604 790.301 731.9C791.021 733.16 792.011 734.168 793.271 734.924C794.567 735.644 796.061 736.004 797.753 736.004ZM827.951 751.124C826.691 751.124 825.485 750.98 824.333 750.692C823.181 750.404 822.173 750.026 821.309 749.558C820.445 749.09 819.761 748.586 819.257 748.046C818.753 747.506 818.501 747.002 818.501 746.534C818.501 746.174 818.555 745.868 818.663 745.616C818.771 745.4 818.933 745.166 819.149 744.914C819.509 744.554 819.797 744.302 820.013 744.158C820.229 744.014 820.517 743.942 820.877 743.942C821.237 743.942 821.597 744.086 821.957 744.374C822.317 744.698 822.749 745.04 823.253 745.4C823.793 745.796 824.441 746.138 825.197 746.426C825.989 746.75 826.961 746.912 828.113 746.912C829.301 746.912 830.363 746.732 831.299 746.372C832.235 746.012 833.045 745.472 833.729 744.752C834.413 744.032 834.935 743.15 835.295 742.106C835.655 741.098 835.835 739.946 835.835 738.65L835.727 716.186C835.763 715.502 835.961 715.016 836.321 714.728C836.717 714.44 837.329 714.296 838.157 714.296C838.841 714.296 839.327 714.404 839.615 714.62C839.939 714.8 840.137 715.07 840.209 715.43C840.317 715.754 840.371 716.168 840.371 716.672V739.028C840.371 740.936 840.065 742.628 839.453 744.104C838.841 745.616 837.977 746.894 836.861 747.938C835.745 748.982 834.431 749.774 832.919 750.314C831.407 750.854 829.751 751.124 827.951 751.124ZM827.789 739.946C826.061 739.946 824.459 739.64 822.983 739.028C821.543 738.38 820.265 737.48 819.149 736.328C818.069 735.176 817.223 733.826 816.611 732.278C816.035 730.73 815.747 729.038 815.747 727.202C815.747 725.366 816.035 723.674 816.611 722.126C817.223 720.578 818.069 719.228 819.149 718.076C820.229 716.924 821.489 716.042 822.929 715.43C824.405 714.782 826.007 714.458 827.735 714.458C829.319 714.458 830.759 714.764 832.055 715.376C833.351 715.988 834.449 716.87 835.349 718.022C836.285 719.138 836.987 720.47 837.455 722.018C837.923 723.566 838.157 725.294 838.157 727.202C838.157 729.794 837.743 732.044 836.915 733.952C836.087 735.86 834.899 737.336 833.351 738.38C831.803 739.424 829.949 739.946 827.789 739.946ZM828.059 735.518C829.499 735.518 830.795 735.158 831.947 734.438C833.099 733.718 834.017 732.728 834.701 731.468C835.385 730.208 835.727 728.75 835.727 727.094C835.727 725.474 835.385 724.052 834.701 722.828C834.017 721.568 833.081 720.596 831.893 719.912C830.741 719.228 829.427 718.886 827.951 718.886C826.475 718.886 825.161 719.228 824.009 719.912C822.857 720.596 821.957 721.568 821.309 722.828C820.697 724.052 820.391 725.492 820.391 727.148C820.391 728.804 820.715 730.262 821.363 731.522C822.011 732.746 822.911 733.718 824.063 734.438C825.215 735.158 826.547 735.518 828.059 735.518ZM850.114 740.54C849.43 740.54 848.908 740.432 848.548 740.216C848.224 740.036 848.008 739.766 847.9 739.406C847.792 739.046 847.738 738.614 847.738 738.11V716.78C847.738 716.276 847.792 715.844 847.9 715.484C848.008 715.124 848.224 714.854 848.548 714.674C848.908 714.494 849.448 714.404 850.168 714.404C850.852 714.404 851.356 714.512 851.68 714.728C852.004 714.908 852.22 715.178 852.328 715.538C852.436 715.898 852.49 716.348 852.49 716.888V738.164C852.49 738.668 852.436 739.1 852.328 739.46C852.22 739.82 851.986 740.09 851.626 740.27C851.302 740.45 850.798 740.54 850.114 740.54ZM850.114 707.924C849.322 707.924 848.728 707.816 848.332 707.6C847.936 707.348 847.666 707.006 847.522 706.574C847.414 706.142 847.36 705.638 847.36 705.062C847.36 704.486 847.432 704 847.576 703.604C847.72 703.172 847.99 702.866 848.386 702.686C848.782 702.47 849.376 702.362 850.168 702.362C850.924 702.362 851.5 702.47 851.896 702.686C852.292 702.902 852.544 703.226 852.652 703.658C852.796 704.09 852.868 704.594 852.868 705.17C852.868 705.746 852.796 706.25 852.652 706.682C852.544 707.078 852.292 707.384 851.896 707.6C851.5 707.816 850.906 707.924 850.114 707.924ZM861.921 740.486C861.237 740.486 860.715 740.378 860.355 740.162C860.031 739.982 859.815 739.712 859.707 739.352C859.635 738.992 859.599 738.56 859.599 738.056V716.618C859.599 716.15 859.653 715.754 859.761 715.43C859.869 715.106 860.085 714.854 860.409 714.674C860.769 714.494 861.291 714.404 861.975 714.404C862.515 714.404 862.929 714.476 863.217 714.62C863.541 714.728 863.757 714.89 863.865 715.106C864.009 715.322 864.099 715.556 864.135 715.808C864.171 716.06 864.189 716.294 864.189 716.51L864.081 718.994C864.441 718.382 864.891 717.806 865.431 717.266C865.971 716.69 866.601 716.186 867.321 715.754C868.041 715.286 868.815 714.926 869.643 714.674C870.507 714.422 871.425 714.296 872.397 714.296C873.981 714.296 875.439 714.584 876.771 715.16C878.103 715.7 879.237 716.51 880.173 717.59C881.145 718.634 881.883 719.894 882.387 721.37C882.927 722.846 883.197 724.52 883.197 726.392V738.11C883.197 738.614 883.143 739.046 883.035 739.406C882.963 739.766 882.747 740.036 882.387 740.216C882.063 740.396 881.559 740.486 880.875 740.486C880.155 740.486 879.615 740.378 879.255 740.162C878.931 739.982 878.715 739.712 878.607 739.352C878.499 738.992 878.445 738.56 878.445 738.056V726.338C878.445 724.826 878.193 723.512 877.689 722.396C877.185 721.28 876.429 720.416 875.421 719.804C874.413 719.156 873.135 718.832 871.587 718.832C870.111 718.832 868.815 719.156 867.699 719.804C866.619 720.416 865.773 721.28 865.161 722.396C864.585 723.512 864.297 724.826 864.297 726.338V738.11C864.297 738.614 864.243 739.046 864.135 739.406C864.027 739.766 863.793 740.036 863.433 740.216C863.109 740.396 862.605 740.486 861.921 740.486ZM900.619 751.124C899.359 751.124 898.153 750.98 897.001 750.692C895.849 750.404 894.841 750.026 893.977 749.558C893.113 749.09 892.429 748.586 891.925 748.046C891.421 747.506 891.169 747.002 891.169 746.534C891.169 746.174 891.223 745.868 891.331 745.616C891.439 745.4 891.601 745.166 891.817 744.914C892.177 744.554 892.465 744.302 892.681 744.158C892.897 744.014 893.185 743.942 893.545 743.942C893.905 743.942 894.265 744.086 894.625 744.374C894.985 744.698 895.417 745.04 895.921 745.4C896.461 745.796 897.109 746.138 897.865 746.426C898.657 746.75 899.629 746.912 900.781 746.912C901.969 746.912 903.031 746.732 903.967 746.372C904.903 746.012 905.713 745.472 906.397 744.752C907.081 744.032 907.603 743.15 907.963 742.106C908.323 741.098 908.503 739.946 908.503 738.65L908.395 716.186C908.431 715.502 908.629 715.016 908.989 714.728C909.385 714.44 909.997 714.296 910.825 714.296C911.509 714.296 911.995 714.404 912.283 714.62C912.607 714.8 912.805 715.07 912.877 715.43C912.985 715.754 913.039 716.168 913.039 716.672V739.028C913.039 740.936 912.733 742.628 912.121 744.104C911.509 745.616 910.645 746.894 909.529 747.938C908.413 748.982 907.099 749.774 905.587 750.314C904.075 750.854 902.419 751.124 900.619 751.124ZM900.457 739.946C898.729 739.946 897.127 739.64 895.651 739.028C894.211 738.38 892.933 737.48 891.817 736.328C890.737 735.176 889.891 733.826 889.279 732.278C888.703 730.73 888.415 729.038 888.415 727.202C888.415 725.366 888.703 723.674 889.279 722.126C889.891 720.578 890.737 719.228 891.817 718.076C892.897 716.924 894.157 716.042 895.597 715.43C897.073 714.782 898.675 714.458 900.403 714.458C901.987 714.458 903.427 714.764 904.723 715.376C906.019 715.988 907.117 716.87 908.017 718.022C908.953 719.138 909.655 720.47 910.123 722.018C910.591 723.566 910.825 725.294 910.825 727.202C910.825 729.794 910.411 732.044 909.583 733.952C908.755 735.86 907.567 737.336 906.019 738.38C904.471 739.424 902.617 739.946 900.457 739.946ZM900.727 735.518C902.167 735.518 903.463 735.158 904.615 734.438C905.767 733.718 906.685 732.728 907.369 731.468C908.053 730.208 908.395 728.75 908.395 727.094C908.395 725.474 908.053 724.052 907.369 722.828C906.685 721.568 905.749 720.596 904.561 719.912C903.409 719.228 902.095 718.886 900.619 718.886C899.143 718.886 897.829 719.228 896.677 719.912C895.525 720.596 894.625 721.568 893.977 722.828C893.365 724.052 893.059 725.492 893.059 727.148C893.059 728.804 893.383 730.262 894.031 731.522C894.679 732.746 895.579 733.718 896.731 734.438C897.883 735.158 899.215 735.518 900.727 735.518Z"
       fill="#8E99F3"
       id="path1521" />
    <path
       opacity="0.79"
       d="M581.241 371.033C579.414 358.748 576.838 344.938 575.515 340.345C571.085 324.957 564.148 313.884 551.559 302.108C543.549 294.615 543.808 294.546 562.266 299.297C596.64 308.144 617.009 322.492 633.022 349.137C635.621 353.461 636.505 355.754 635.679 356.029C634.999 356.256 628.46 360.444 621.148 365.336C609.478 373.145 604.523 376.911 588.157 390.406L584.563 393.369L581.241 371.033Z"
       fill="url(#paint0_linear_6_473)"
       id="path1523" />
    <path
       opacity="0.79"
       d="M635.255 346.61C625.074 329.399 610.702 315.981 593.029 307.189C580.51 300.961 574.48 298.954 556.365 294.984C522.234 287.504 511.904 285.684 486.568 282.684L476 281.433L481.033 279.88C484.98 278.662 491.493 278.318 511.229 278.283L536.392 278.239L541.927 274.031C554.599 264.398 571.967 258.612 588.206 258.612C603.492 258.612 614.389 262.679 623.265 271.695C629.588 278.119 633.962 286.513 640.572 304.912C647.148 323.214 651.503 332.439 656.081 337.769L659.665 341.939L657.387 343.431C656.135 344.252 651.494 346.741 647.074 348.964L639.038 353.004L635.255 346.61Z"
       fill="url(#paint1_linear_6_473)"
       id="path1525" />
    <path
       opacity="0.79"
       d="M683.344 331.342C685.042 329.584 713.488 313.237 733.671 302.422C821.885 255.148 893.151 236.095 941.059 246.977C950.304 249.077 963.78 253.742 963.433 254.721C963.282 255.149 952.062 264.12 938.499 274.658L913.839 293.817L900.754 293.074C876.171 291.678 829.494 292.288 815.703 294.185C782.969 298.688 730.635 313.001 696.429 326.804C681.85 332.687 682.144 332.585 683.344 331.342V331.342Z"
       fill="url(#paint2_linear_6_473)"
       id="path1527" />
    <path
       opacity="0.79"
       d="M724.763 624.651C708.185 575.853 693.944 541.277 685.688 529.781C683.467 526.687 680.474 524.169 676.802 522.301C668.704 518.182 658.251 510.535 649.36 502.224C639.6 493.102 626.044 477.057 627.157 475.945C628.734 474.368 643.033 472.771 649.613 473.437C683.088 476.827 710.662 501.136 723.083 538.207C728.315 553.824 729.229 562.042 729.6 596.805C729.787 614.243 730.438 632.098 731.047 636.482C731.657 640.866 732.043 644.565 731.907 644.7C731.77 644.835 728.555 635.814 724.763 624.651V624.651Z"
       fill="url(#paint3_linear_6_473)"
       id="path1529" />
    <path
       opacity="0.79"
       d="M729.84 553.524C729.395 550.48 727.45 543.249 725.519 537.457C715.109 506.23 694.326 483.728 667.24 474.36C659.971 471.845 657.818 471.57 645.097 471.534C636.315 471.508 629.734 471.961 627.631 472.734C624.558 473.865 624.09 473.775 622.405 471.728C617.685 465.993 617.704 465.84 624.315 456.188C633.01 443.491 633.507 443.122 643.56 441.862C663.115 439.412 682.742 440.652 707.703 445.916L718.147 448.118L722.049 456.282C731.035 475.083 733.733 501.759 731.274 547.485C730.687 558.395 730.605 558.742 729.84 553.524Z"
       fill="url(#paint4_linear_6_473)"
       id="path1531" />
    <path
       opacity="0.79"
       d="M703.978 442.691C683.732 438.374 669.737 437.283 652.553 438.682C644.701 439.322 638.094 439.662 637.87 439.438C637.646 439.215 640.682 436.255 644.616 432.86C665.8 414.583 688.428 404.864 721.207 399.965C733.651 398.105 780.504 396.749 778.964 398.294C777.606 399.656 717.936 445.858 717.729 445.707C717.639 445.642 711.452 444.284 703.978 442.691V442.691Z"
       fill="url(#paint5_linear_6_473)"
       id="path1533" />
    <path
       opacity="0.79"
       d="M610.238 454.125C607.12 449.284 602.869 442.228 600.79 438.445L597.011 431.568L602.936 425.531C640.953 386.794 696.931 362.747 767.74 354.733C783.947 352.899 828.537 351.107 834.106 352.066L837.915 352.722L810.453 374.076L782.991 395.43L761.777 395.465C750.109 395.483 735.615 395.982 729.568 396.572C698.275 399.627 671.559 408.937 651.725 423.701C641.941 430.984 627.255 446.486 621.443 455.664C618.952 459.599 616.687 462.843 616.411 462.873C616.134 462.903 613.356 458.966 610.238 454.125V454.125Z"
       fill="url(#paint6_linear_6_473)"
       id="path1535" />
    <path
       opacity="0.79"
       d="M593.228 423.969C589.728 416.205 588.202 411.547 586.704 404.055L585.295 397.009L589.529 393.094C607.396 376.575 632.769 359.672 660.736 345.657C706.748 322.601 773.39 301.92 820.134 296.193C834.131 294.478 883.676 294.128 901.628 295.617L910.554 296.357L876.637 322.619L842.719 348.882L816.378 349.52C765.792 350.745 730.776 355.835 696.429 366.957C660.359 378.636 629.995 396.21 604.646 420.078L595.399 428.786L593.228 423.969Z"
       fill="url(#paint7_linear_6_473)"
       id="path1537" />
  </g>
  <defs
     id="defs1579">
    <linearGradient
       id="paint0_linear_6_473"
       x1="478.113"
       y1="245.063"
       x2="907.892"
       y2="585.071"
       gradientUnits="userSpaceOnUse">
      <stop
         stop-color="#8C96F2"
         id="stop1539" />
      <stop
         offset="1"
         stop-color="#162DD5"
         id="stop1541" />
    </linearGradient>
    <linearGradient
       id="paint1_linear_6_473"
       x1="478.113"
       y1="245.063"
       x2="907.892"
       y2="585.071"
       gradientUnits="userSpaceOnUse">
      <stop
         stop-color="#8C96F2"
         id="stop1544" />
      <stop
         offset="1"
         stop-color="#162DD5"
         id="stop1546" />
    </linearGradient>
    <linearGradient
       id="paint2_linear_6_473"
       x1="478.113"
       y1="245.063"
       x2="907.892"
       y2="585.072"
       gradientUnits="userSpaceOnUse">
      <stop
         stop-color="#8C96F2"
         id="stop1549" />
      <stop
         offset="1"
         stop-color="#162DD5"
         id="stop1551" />
    </linearGradient>
    <linearGradient
       id="paint3_linear_6_473"
       x1="478.113"
       y1="245.063"
       x2="907.893"
       y2="585.072"
       gradientUnits="userSpaceOnUse">
      <stop
         stop-color="#8C96F2"
         id="stop1554" />
      <stop
         offset="1"
         stop-color="#162DD5"
         id="stop1556" />
    </linearGradient>
    <linearGradient
       id="paint4_linear_6_473"
       x1="478.113"
       y1="245.063"
       x2="907.892"
       y2="585.072"
       gradientUnits="userSpaceOnUse">
      <stop
         stop-color="#8C96F2"
         id="stop1559" />
      <stop
         offset="1"
         stop-color="#162DD5"
         id="stop1561" />
    </linearGradient>
    <linearGradient
       id="paint5_linear_6_473"
       x1="478.113"
       y1="245.063"
       x2="907.892"
       y2="585.072"
       gradientUnits="userSpaceOnUse">
      <stop
         stop-color="#8C96F2"
         id="stop1564" />
      <stop
         offset="1"
         stop-color="#162DD5"
         id="stop1566" />
    </linearGradient>
    <linearGradient
       id="paint6_linear_6_473"
       x1="478.113"
       y1="245.063"
       x2="907.892"
       y2="585.071"
       gradientUnits="userSpaceOnUse">
      <stop
         stop-color="#8C96F2"
         id="stop1569" />
      <stop
         offset="1"
         stop-color="#162DD5"
         id="stop1571" />
    </linearGradient>
    <linearGradient
       id="paint7_linear_6_473"
       x1="478.113"
       y1="245.063"
       x2="907.892"
       y2="585.071"
       gradientUnits="userSpaceOnUse">
      <stop
         stop-color="#8C96F2"
         id="stop1574" />
      <stop
         offset="1"
         stop-color="#162DD5"
         id="stop1576" />
    </linearGradient>
  </defs>
</svg>
